<svg aria-hidden="true" style="position:absolute;width:0;height:0;overflow:hidden" xmlns="http://www.w3.org/2000/svg">
  <defs>
    <symbol id="icon-twitter" viewBox="0 0 32 32">
      <path d="M11.919 24.94c-2.548 0-4.921-.747-6.919-2.032a9.01 9.01 0 0 0 6.7-1.882l-.019.014a4.516 4.516 0 0 1-4.206-3.105l-.009-.032c.276.054.559.082.848.082.412 0 .812-.056 1.193-.156-2.079-.432-3.62-2.248-3.622-4.425v-.059c.589.334 1.289.54 2.035.564h.007a4.509 4.509 0 0 1-2.008-3.751v-.008c0-.824.225-1.602.612-2.268 2.236 2.735 5.543 4.522 9.272 4.714l.031.001a4.517 4.517 0 0 1 7.69-4.117l.002.002a9.09 9.09 0 0 0 2.907-1.117l-.041.023a4.568 4.568 0 0 1-1.963 2.487l-.02.011a9.042 9.042 0 0 0 2.649-.733l-.057.023a9.383 9.383 0 0 1-2.226 2.319l-.026.018c.008.193.014.388.014.583-.001 5.962-4.542 12.843-12.844 12.842z"/>
    </symbol>
    <symbol id="icon-linkedin" viewBox="0 0 32 32">
      <path d="M11.512 10.944a1.94 1.94 0 0 1-2.109 1.933l.007.001h-.025a1.937 1.937 0 1 1 .057-3.865h-.007a1.932 1.932 0 0 1 2.077 1.927v.006zm-3.963 3.461h3.715v11.178H7.549zm17.12 4.766v6.412h-3.715v-5.979c0-1.504-.537-2.53-1.886-2.53a2.04 2.04 0 0 0-1.899 1.345l-.004.014a2.489 2.489 0 0 0-.123.912v-.006 6.245h-3.719s.051-10.134 0-11.181h3.722v1.583l-.027.039h.025v-.042a3.693 3.693 0 0 1 3.357-1.844h-.008c2.444 0 4.278 1.598 4.278 5.032z"/>
    </symbol>
    <symbol id="icon-instagram" viewBox="0 0 32 32">
      <path d="M20.445 5h-8.891A6.559 6.559 0 0 0 5 11.554v8.891A6.559 6.559 0 0 0 11.554 27h8.891a6.56 6.56 0 0 0 6.554-6.555v-8.891A6.557 6.557 0 0 0 20.445 5zm4.342 15.445a4.343 4.343 0 0 1-4.342 4.342h-8.891a4.342 4.342 0 0 1-4.341-4.341V11.553a4.34 4.34 0 0 1 4.34-4.34h8.892a4.343 4.343 0 0 1 4.341 4.341l.001 8.891z"/>
      <path d="M16 10.312c-3.138 0-5.688 2.551-5.688 5.688s2.551 5.688 5.688 5.688 5.688-2.551 5.688-5.688-2.55-5.688-5.688-5.688zm0 9.163h-.001a3.475 3.475 0 0 1-.001-6.95h.001a3.475 3.475 0 0 1 .001 6.95zm5.7-10.484a1.364 1.364 0 1 1-1.364 1.364c0-.752.51-1.364 1.364-1.364z"/>
    </symbol>
    <symbol id="icon-facebook" viewBox="0 0 32 32">
      <path d="m21.95 5.005-3.306-.004c-3.206 0-5.277 2.124-5.277 5.415v2.495H10.05v4.515h3.317l-.004 9.575h4.641l.004-9.575h3.806l-.003-4.514h-3.803v-2.117c0-1.018.241-1.533 1.566-1.533l2.366-.001.01-4.256z"/>
    </symbol>
  </defs>
</svg>
